<!-- public/vite.svg -->
<svg width="410" height="404" viewBox="0 0 410 404" fill="none" xmlns="http://www.w3.org/2000/svg">
  <g clip-path="url(#clip0)">
    <path d="M0 0H410V403.3H0V0Z" fill="white"/>
    <path d="M206.6 74.6L205.7 78.5L211.3 80.2L222.8 83.7L239.2 84.7L239.9 78.4L233.6 71.3L218.1 66.4L206.6 74.6ZM215.6 103.5L192.7 116.3L191.6 136.1L201.8 140.3L211.8 129.9L215.6 103.5Z" fill="#FFB300"/>
    <path d="M244.9 89.2L240.3 87.9L232.5 95.2L215.6 103.5L211.8 129.9L239.6 129.7L256.3 113.2L259.4 97.7L244.9 89.2Z" fill="#F57C00"/>
    <path d="M226.7 63.6L218.1 66.4L233.6 71.3L239.9 78.4L239.2 84.7L244.9 89.2L259.4 97.7L265.6 91.8L266.4 82.4L260.2 72.9L244.3 64.8L226.7 63.6Z" fill="#FFA726"/>
    <path d="M205.7 78.5L194.7 83.4L188.7 94.1L187.6 104.2L192.7 116.3L215.6 103.5L232.5 95.2L240.3 87.9L222.8 83.7L211.3 80.2L205.7 78.5Z" fill="#FFE082"/>
    <path d="M187.6 104.2L180.2 108.1L174.6 121.1L171.7 136.6L173.8 144.5L182.8 147.7L191.6 136.1L192.7 116.3L187.6 104.2Z" fill="#FFD54F"/>
    <path d="M215.6 103.5L211.8 129.9L201.8 140.3L201.7 146.4L217.5 160.4L238.4 162.1L238.7 129.9L215.6 103.5Z" fill="#FFCA28"/>
  </g>
  <defs>
    <clipPath id="clip0">
      <rect width="410" height="403.3" fill="white"/>
    </clipPath>
  </defs>
</svg>
